# xmcd CD database file
#
# Track frame offsets:
#	150
#	23579
#	32823
#	46586
#	57978
#	72734
#	90823
#	100603
#	111671
#	128186
#	142201
#	154907
#	163763
#	175113
#	191433
#	206387
#	217414
#	231932
#	245630
#	255987
#
# Disc length: 3690 seconds
#
# Revision: 0
# Processed by: cddbd v1.5.2PL0 Copyright (c) Steve Scherf et al.
# Submitted via: CDex 1.51
#
DISCID=1f0e6814
DTITLE=Danny and the Wonderbras - Live At The Fuck CD1
DYEAR=2014
DGENRE=Country
TTITLE0=Time To Rock'n'Roll
TTITLE1=Wake Up Little Suzie
TTITLE2=Get Rhythm
TTITLE3=Crazy For My Baby
TTITLE4=Memphis Tennessee
TTITLE5=I'm On My Way
TTITLE6=Bird Dog
TTITLE7=Baby I'm Drunk
TTITLE8=High School Confidential
TTITLE9=Mr. Bassman
TTITLE10=Three Biggest Lies In The World
TTITLE11=Sweet Pea
TTITLE12=Ways Of A Woman In Love
TTITLE13=Devil In Disguise
TTITLE14=Louisiana Summernights
TTITLE15=King Creol
TTITLE16=Little Queenie
TTITLE17=Route 66
TTITLE18=Do Baby Do
TTITLE19=Mystery Train/Tiger Man
EXTD=YEAR: 2014
EXTT0=
EXTT1=
EXTT2=
EXTT3=
EXTT4=
EXTT5=
EXTT6=
EXTT7=
EXTT8=
EXTT9=
EXTT10=
EXTT11=
EXTT12=
EXTT13=
EXTT14=
EXTT15=
EXTT16=
EXTT17=
EXTT18=
EXTT19=
PLAYORDER=
